<?xml version="1.0" standalone="no"?>
<!DOCTYPE svg PUBLIC "-//W3C//DTD SVG 20010904//EN"
 "http://www.w3.org/TR/2001/REC-SVG-20010904/DTD/svg10.dtd">
<svg version="1.0" xmlns="http://www.w3.org/2000/svg"
 width="90.000000pt" height="90.000000pt" viewBox="0 0 90.000000 90.000000"
 preserveAspectRatio="xMidYMid meet">

<g transform="translate(0.000000,90.000000) scale(0.100000,-0.100000)"
fill="#000000" stroke="none">
<path d="M460 868 c3 -38 1 -43 -13 -24 -16 21 -68 19 -75 -4 -4 -13 -3 -13
11 -2 13 11 15 10 9 -10 -5 -21 -4 -22 11 -9 9 7 18 10 18 5 3 -22 -4 -50 -19
-73 -16 -25 -16 -25 1 -12 17 13 23 5 9 -14 -8 -12 -44 -16 -37 -5 3 5 -4 6
-15 3 -20 -5 -28 -23 -10 -23 6 0 10 -5 10 -11 0 -8 -4 -8 -14 0 -11 9 -20 9
-34 2 -16 -8 -21 -7 -26 5 -8 20 2 36 16 28 6 -4 5 -10 -3 -15 -11 -7 -10 -9
3 -9 26 0 31 18 8 30 -16 9 -25 8 -38 -2 -12 -8 -11 -5 3 11 l20 24 -25 -6
c-24 -6 -24 -5 -6 8 11 8 15 15 10 15 -17 0 -33 -22 -27 -38 4 -10 2 -13 -5
-8 -7 4 -12 2 -12 -3 0 -6 5 -11 10 -11 16 0 12 -32 -7 -53 -10 -11 -13 -17
-7 -14 12 7 27 -30 18 -45 -7 -12 -24 -10 -24 3 0 5 5 7 10 4 6 -3 10 -1 10 5
0 8 -7 9 -17 5 -10 -4 -27 -8 -38 -9 -23 -1 -27 -27 -6 -34 9 -3 11 0 7 9 -5
10 -3 9 6 -1 7 -8 23 -14 35 -12 15 2 32 -6 47 -23 22 -23 24 -24 19 -5 -4 15
-2 19 10 15 12 -5 13 -12 4 -35 -13 -35 -3 -49 23 -32 13 8 21 8 25 1 8 -12
-42 -62 -55 -54 -4 3 -11 -10 -14 -28 -8 -43 -77 -123 -98 -114 -11 4 -15 13
-11 27 5 20 4 21 -15 9 -26 -16 -40 -5 -19 15 8 9 13 25 10 36 -3 11 0 20 5
20 18 0 34 -40 30 -71 -6 -36 2 -36 33 -2 20 23 20 25 2 9 -22 -18 -22 -18
-21 13 1 23 6 31 22 33 13 2 22 12 24 26 4 24 17 29 25 10 4 -8 6 -7 6 3 1 22
-26 32 -33 14 -5 -14 -34 -10 -46 5 -10 13 -70 29 -70 19 0 -5 8 -12 18 -16 9
-3 25 -13 34 -21 10 -8 24 -12 33 -9 8 4 15 2 15 -3 0 -26 -91 8 -115 44 -17
24 -20 40 -5 31 6 -3 10 5 10 19 0 16 9 32 25 42 14 9 24 19 21 21 -8 9 -53
-28 -64 -53 -17 -35 -15 -89 3 -104 8 -7 15 -19 15 -26 0 -12 -5 -11 -25 2
-24 15 -25 15 -25 -2 -1 -16 -3 -15 -14 5 l-13 24 -6 -25 c-15 -59 34 -146
118 -209 43 -32 53 -45 44 -55 -8 -10 -5 -19 15 -39 44 -44 127 -76 208 -80
l73 -4 -65 9 c-113 14 -235 73 -200 95 7 4 17 2 23 -5 9 -10 9 -11 -1 -6 -6 4
-12 5 -12 2 0 -11 61 -37 72 -30 6 4 8 3 5 -3 -9 -15 18 -24 31 -11 8 8 13 7
18 -6 5 -14 9 -14 22 -4 13 11 14 11 7 -1 -6 -11 -3 -13 13 -9 12 4 20 2 16
-3 -3 -5 0 -9 5 -9 6 0 11 6 11 14 0 8 -16 18 -37 23 -33 8 -28 9 37 9 57 1
90 7 140 27 62 25 100 30 46 6 -14 -7 -26 -19 -26 -28 0 -12 -2 -13 -8 -3 -7
10 -15 10 -40 -1 -36 -15 -32 -27 7 -27 21 0 23 2 11 11 -12 9 -12 10 3 5 23
-7 60 11 51 26 -4 6 1 8 15 3 15 -4 21 -2 21 8 0 8 9 17 20 20 11 3 20 1 20
-5 0 -5 5 -6 11 -2 7 4 6 11 -5 22 -11 11 -18 12 -28 4 -10 -7 -18 -7 -32 4
-19 13 -19 14 -1 34 10 11 35 30 54 42 20 12 50 34 67 50 20 19 34 26 38 19 4
-6 4 -11 -1 -11 -4 0 -2 -4 5 -9 11 -6 8 -14 -12 -37 -19 -23 -27 -26 -37 -17
-10 10 -15 9 -26 -5 -8 -9 -12 -11 -8 -4 9 17 -6 15 -33 -7 -22 -16 -23 -19
-7 -34 19 -19 37 -14 28 8 -3 10 1 15 12 15 10 0 13 -5 9 -12 -4 -6 10 2 31
18 41 31 95 108 95 133 -1 9 -6 3 -13 -12 -11 -26 -13 -27 -34 -12 -13 9 -23
24 -24 33 0 10 -3 12 -6 5 -6 -15 -33 -17 -33 -3 0 6 6 9 13 8 6 -2 11 3 9 11
-3 12 0 12 12 1 9 -7 16 -19 16 -26 0 -8 9 -14 20 -14 11 0 20 5 20 10 0 6 -6
10 -14 10 -8 0 -16 7 -20 15 -3 8 -1 15 3 15 5 0 11 -6 14 -12 3 -10 8 -10 16
-2 13 12 5 44 -11 44 -5 0 -7 -3 -5 -7 3 -5 -6 -9 -19 -9 l-24 -2 20 33 c25
41 18 107 -14 139 -12 12 -20 25 -18 29 1 5 -1 6 -5 4 -5 -3 -14 6 -20 20 -11
23 -10 25 7 20 11 -3 18 -1 14 4 -9 15 -32 10 -43 -8 -9 -16 -12 -16 -21 -3
-5 8 -10 23 -10 32 0 9 -4 19 -10 23 -5 3 -7 23 -5 45 2 27 0 39 -8 37 -7 -1
-11 4 -9 11 3 15 -11 9 -40 -16 -11 -9 -18 -11 -18 -4 0 6 10 18 22 26 12 9
17 16 11 16 -14 0 -43 -28 -43 -41 0 -5 10 -13 23 -18 13 -5 29 -17 37 -27 13
-16 13 -17 -2 -11 -10 3 -18 3 -18 -2 0 -5 10 -12 23 -15 19 -6 20 -8 6 -19
-9 -6 -14 -19 -11 -27 4 -11 1 -10 -12 3 -11 11 -26 16 -40 12 -20 -5 -20 -5
2 6 12 7 22 18 22 25 0 18 -29 44 -49 44 -23 0 -74 54 -76 80 -1 11 2 20 7 20
4 0 8 -7 8 -15 0 -8 6 -15 14 -15 17 0 29 27 16 35 -6 4 -10 0 -10 -7 0 -7 -7
-2 -16 11 -14 19 -14 25 -3 33 10 7 8 7 -8 3 -17 -5 -23 -2 -23 9 0 9 -5 16
-11 16 -6 0 -10 -10 -9 -22z m14 -63 c4 -10 -1 -15 -14 -15 -13 0 -18 5 -14
15 4 8 10 15 14 15 4 0 10 -7 14 -15z m-3 -65 c5 0 9 -13 9 -30 0 -35 -36 -62
-51 -39 -19 30 -5 84 18 75 8 -3 19 -6 24 -6z m189 -10 c0 -5 -2 -10 -4 -10
-3 0 -8 5 -11 10 -3 6 -1 10 4 10 6 0 11 -4 11 -10z m-82 -36 c11 -12 11 -14
-2 -14 -9 0 -16 5 -16 10 0 6 -4 10 -10 10 -13 0 -7 -34 9 -54 12 -14 11 -19
-5 -30 -10 -8 -21 -12 -24 -10 -2 3 2 9 10 14 10 6 11 12 3 22 -6 7 -10 20
-10 28 -1 8 -4 23 -8 34 -7 16 -5 17 16 11 12 -4 29 -14 37 -21z m-168 -14
c13 -25 2 -26 -17 -2 -14 16 -14 16 -9 0 7 -24 -3 -50 -17 -41 -6 3 -7 1 -3
-5 4 -7 24 -12 44 -12 28 0 33 3 22 10 -8 5 -10 10 -5 10 17 0 32 -14 37 -37
7 -25 -7 -41 -15 -19 -7 17 -55 27 -60 12 -3 -7 -11 -5 -23 6 -11 9 -31 22
-44 28 -22 9 -22 10 -3 6 12 -2 27 2 34 10 6 8 8 14 4 14 -5 0 0 9 10 20 10
11 22 20 26 20 5 0 13 -9 19 -20z m-136 1 c3 -5 -3 -11 -15 -14 -16 -4 -18 -3
-8 9 13 16 16 17 23 5z m22 -26 c-10 -8 -24 -11 -29 -8 -6 4 -2 10 9 14 31 12
40 9 20 -6z m439 -65 c-3 -5 -10 -10 -16 -10 -5 0 -9 5 -9 10 0 6 7 10 16 10
8 0 12 -4 9 -10z m-147 -24 c1 -17 -10 -34 -42 -60 -50 -41 -52 -41 -60 -21
-3 8 -2 14 2 13 11 -3 82 43 82 53 0 14 -31 24 -39 12 -10 -16 -43 -25 -39
-11 3 7 24 18 49 25 24 6 44 12 44 12 0 1 2 -10 3 -23z m177 -8 c14 -12 25
-31 24 -42 0 -20 -1 -20 -9 2 -11 26 -14 27 -34 6 -15 -14 -16 -12 -16 20 0
42 2 43 35 14z m-393 -20 c-7 -7 -12 -8 -12 -2 0 6 3 14 7 17 3 4 9 5 12 2 2
-3 -1 -11 -7 -17z m85 -45 c-2 -16 -4 -5 -4 22 0 28 2 40 4 28 2 -13 2 -35 0
-50z m253 52 c-9 -10 -9 -15 -1 -15 17 0 13 -50 -4 -56 -12 -5 -13 -10 -4 -20
8 -10 16 -11 31 -3 15 8 19 8 14 0 -12 -18 9 -12 39 11 25 19 27 20 17 2 -6
-10 -24 -32 -41 -48 -34 -32 -44 -61 -11 -31 24 21 27 11 4 -12 -9 -10 -14
-27 -12 -43 5 -34 -27 -38 -59 -8 -24 22 -32 45 -11 32 7 -4 8 -3 4 5 -4 6
-11 9 -16 6 -5 -3 -11 -1 -15 5 -3 5 -18 11 -33 11 -25 2 -25 2 -4 6 15 3 22
10 18 19 -3 8 -3 28 1 44 4 24 10 29 23 25 22 -7 32 6 19 25 -6 10 -9 11 -9 3
0 -7 -6 -13 -12 -13 -7 1 5 16 27 35 43 37 55 44 35 20z m-290 1 c0 -3 -4 -8
-10 -11 -5 -3 -10 -1 -10 4 0 6 5 11 10 11 6 0 10 -2 10 -4z m209 -53 c-11
-31 -26 -67 -34 -80 -15 -22 -16 -23 -35 -5 -36 34 -8 92 38 78 13 -5 18 0 20
20 2 29 9 44 21 44 5 0 0 -26 -10 -57z m-219 7 c12 -12 15 -20 8 -20 -15 1
-48 24 -48 34 0 12 21 5 40 -14z m334 -27 c-30 -22 -39 -15 -13 13 15 16 25
21 28 13 2 -7 -4 -18 -15 -26z m-411 -77 c4 -10 0 -12 -14 -9 -22 6 -26 23 -5
23 8 0 16 -6 19 -14z m224 -12 c-3 -3 -12 -4 -19 -1 -8 3 -5 6 6 6 11 1 17 -2
13 -5z m-478 -30 c5 4 13 -4 16 -16 4 -13 14 -31 23 -40 11 -14 12 -21 3 -31
-9 -11 -8 -17 4 -27 12 -10 16 -9 21 4 6 16 8 16 28 -2 11 -10 40 -30 64 -45
23 -15 42 -31 42 -36 0 -5 -14 -14 -30 -20 -17 -5 -28 -6 -25 -1 3 5 -14 22
-39 39 -64 45 -122 115 -134 164 -9 36 -9 40 3 23 7 -10 18 -15 24 -12z m201
-24 c-27 -34 -29 -41 -16 -46 14 -5 14 -9 4 -22 -11 -13 -9 -15 15 -10 20 4
33 -1 50 -18 13 -13 35 -28 48 -33 l24 -10 -24 0 c-24 -1 -24 -1 -5 -17 18
-14 18 -15 -6 -8 -14 3 -39 17 -56 30 -24 17 -34 20 -43 11 -9 -9 -21 -1 -50
33 -22 25 -37 47 -34 50 3 3 20 -12 37 -34 26 -30 38 -37 54 -32 11 4 23 2 27
-4 3 -5 16 -15 28 -20 15 -8 13 -3 -8 15 -16 14 -37 24 -47 23 -9 -2 -28 8
-42 21 -28 27 -33 41 -13 41 7 0 21 16 31 35 12 21 27 35 38 35 17 0 16 -5
-12 -40z m96 8 c-1 -30 1 -33 27 -30 26 3 27 1 27 -45 0 -35 -3 -44 -10 -33
-8 12 -12 13 -19 2 -6 -11 -11 -10 -25 4 -14 13 -15 19 -4 25 10 6 9 12 -7 23
-24 18 -32 19 -40 6 -8 -12 -35 6 -35 22 0 13 26 38 40 38 6 0 8 5 5 10 -3 6
5 10 18 10 22 0 25 -4 23 -32z m234 13 c0 -31 -16 -33 -34 -6 -16 24 -16 25 9
25 18 0 25 -5 25 -19z m-45 -28 c8 -40 37 -74 63 -76 14 -1 21 -6 18 -14 -8
-19 5 -16 31 9 22 21 32 45 14 34 -5 -3 -11 4 -14 15 -5 19 -4 20 12 5 9 -9
27 -14 39 -11 30 5 37 -11 11 -26 -19 -10 -21 -9 -15 6 4 10 -10 -1 -31 -24
-35 -39 -40 -42 -65 -32 -16 6 -28 15 -28 21 0 5 -16 24 -35 41 -27 25 -32 35
-25 49 5 10 6 20 3 24 -3 3 -1 6 5 6 6 0 13 -12 17 -27z m82 -9 c-3 -3 -12 -4
-19 -1 -8 3 -5 6 6 6 11 1 17 -2 13 -5z m-141 -158 c25 15 48 24 51 20 3 -3
-10 -12 -30 -21 -19 -8 -44 -26 -55 -40 -22 -28 -32 -32 -32 -11 0 8 -12 24
-27 35 -16 11 -23 21 -17 21 6 0 17 -7 24 -15 13 -16 31 -20 29 -7 -1 4 0 45
2 92 l3 85 3 -93 4 -92 45 26z m-11 145 c-3 -5 2 -11 11 -13 14 -3 13 -6 -5
-22 -21 -19 -21 -19 -21 6 0 13 3 28 7 31 9 10 15 8 8 -2z m-306 -41 l16 -24
-24 17 c-20 13 -28 14 -40 4 -14 -10 -14 -10 -4 4 7 9 9 19 5 24 -4 4 1 6 12
4 10 -2 26 -15 35 -29z m404 -34 c6 -14 0 -26 -13 -26 -3 0 -6 9 -7 20 -2 23
12 27 20 6z m-26 -25 c10 -16 8 -18 -18 -17 -32 1 -35 6 -17 24 16 16 21 15
35 -7z m-60 -6 c4 -4 2 -5 -5 -1 -9 6 -12 3 -10 -9 2 -10 -3 -20 -9 -22 -8 -3
-13 5 -13 20 0 25 20 31 37 12z m-202 -5 c4 -6 28 -22 55 -35 27 -14 54 -34
60 -45 10 -18 8 -20 -17 -20 -45 1 -113 36 -113 59 0 11 -4 23 -10 26 -5 3
-10 10 -10 16 0 12 27 12 35 -1z m122 -27 c-3 -3 -11 -2 -17 2 -8 5 -7 11 2
22 12 15 13 14 16 -1 2 -10 1 -20 -1 -23z m198 20 c-4 -10 -7 -25 -7 -34 1
-19 -53 -46 -111 -55 l-42 -7 20 23 c11 12 41 33 67 46 26 13 49 28 53 34 11
17 28 11 20 -7z m81 -2 c0 -16 -3 -17 -14 -9 -12 10 -7 19 13 28 1 0 1 -9 1
-19z m-398 -77 c2 -1 -5 -5 -15 -8 -9 -4 -14 -4 -10 0 4 4 1 14 -6 23 -11 14
-10 15 8 1 11 -8 21 -15 23 -16z"/>
<path d="M438 722 c-3 -9 -1 -26 3 -37 6 -15 8 -11 8 18 1 40 -4 48 -11 19z"/>
<path d="M661 422 c-1 -16 6 -26 20 -29 15 -4 20 -12 17 -32 -3 -29 8 -51 25
-51 8 0 8 3 -1 12 -19 19 -14 59 10 85 12 13 17 23 12 24 -5 0 -21 3 -36 5
-16 3 -28 0 -28 -6 0 -6 11 -8 25 -6 14 3 23 1 20 -5 -11 -16 -53 -10 -58 9
-3 12 -5 11 -6 -6z"/>
<path d="M570 466 c0 -2 9 -6 20 -9 11 -3 18 -1 14 4 -5 9 -34 13 -34 5z"/>
<path d="M565 440 c-3 -5 1 -10 10 -10 9 0 13 5 10 10 -3 6 -8 10 -10 10 -2 0
-7 -4 -10 -10z"/>
<path d="M155 230 c-4 -6 -3 -16 3 -22 13 -13 23 4 13 21 -7 10 -10 10 -16 1z"/>
<path d="M186 202 c-2 -4 4 -9 15 -9 11 -1 17 2 14 8 -7 11 -22 12 -29 1z"/>
<path d="M543 842 c15 -17 17 -26 9 -56 -6 -21 -7 -36 -1 -36 5 0 9 5 9 11 0
5 4 8 9 5 14 -9 19 41 7 66 -6 13 -20 25 -31 27 -19 3 -19 3 -2 -17z"/>
<path d="M375 771 c0 -16 3 -27 8 -24 4 2 7 15 7 29 0 13 -3 24 -7 24 -5 0 -8
-13 -8 -29z"/>
<path d="M340 775 c0 -8 5 -15 10 -15 6 0 10 7 10 15 0 8 -4 15 -10 15 -5 0
-10 -7 -10 -15z"/>
<path d="M156 631 c-3 -4 6 -6 19 -3 14 2 25 6 25 8 0 8 -39 4 -44 -5z"/>
<path d="M161 557 c-17 -17 -13 -29 20 -64 31 -34 55 -47 26 -15 -18 20 -23
57 -8 67 5 3 13 0 17 -6 5 -8 3 -9 -7 -4 -8 5 -11 4 -6 -1 5 -5 16 -9 25 -9 9
0 27 -16 40 -35 l25 -35 -7 34 c-11 59 -30 80 -75 79 -22 0 -44 -5 -50 -11z"/>
<path d="M235 491 c-6 -11 9 -23 19 -14 9 9 7 23 -3 23 -6 0 -12 -4 -16 -9z"/>
<path d="M850 389 c0 -5 5 -7 10 -4 6 3 10 8 10 11 0 2 -4 4 -10 4 -5 0 -10
-5 -10 -11z"/>
<path d="M775 260 c3 -5 10 -10 16 -10 5 0 9 5 9 10 0 6 -7 10 -16 10 -8 0
-12 -4 -9 -10z"/>
<path d="M760 234 c0 -8 5 -12 10 -9 6 3 10 10 10 16 0 5 -4 9 -10 9 -5 0 -10
-7 -10 -16z"/>
<path d="M650 171 c0 -5 7 -11 14 -14 10 -4 13 -1 9 9 -6 15 -23 19 -23 5z"/>
<path d="M650 75 c-19 -14 -30 -25 -25 -25 6 0 24 11 40 25 39 31 30 31 -15 0z"/>
<path d="M475 60 c-23 -10 -21 -11 18 -16 24 -2 27 -1 17 12 -7 7 -13 14 -14
13 0 0 -10 -4 -21 -9z"/>
<path d="M575 40 c-13 -6 -15 -9 -5 -9 8 0 22 4 30 9 18 12 2 12 -25 0z"/>
<path d="M528 23 c7 -3 16 -2 19 1 4 3 -2 6 -13 5 -11 0 -14 -3 -6 -6z"/>
</g>
</svg>
